<svg width="42" height="42" viewBox="0 0 42 42" fill="none" xmlns="http://www.w3.org/2000/svg">
<g clip-path="url(#clip0_12_4765)">
<path d="M42 2.90655V9.59095C42 9.59095 38.5747 9.9445 37.3782 10.083C32.0566 10.6825 26.7559 11.4285 21.5151 12.5295C18.8074 13.1002 16.108 13.6998 13.5534 14.7804C11.8579 15.4315 10.3093 16.4143 8.9982 17.6712C7.43555 19.2658 7.34218 21.0881 8.73855 22.7725C9.66648 23.894 10.9417 24.6158 12.2211 25.272C14.2668 26.2387 21.663 28.8725 23.0479 29.7983C23.272 29.9452 23.4647 30.1351 23.6149 30.357C23.7632 30.5756 23.865 30.8223 23.9139 31.0819C23.9626 31.34 23.9575 31.6054 23.8987 31.8614C23.8393 32.119 23.7279 32.3618 23.5714 32.5748C23.1845 33.097 22.7291 33.5647 22.2175 33.9654C20.4305 35.3097 18.5101 36.467 16.4867 37.4191C13.7743 38.763 8.35982 41.1492 6.4153 42H2.90603C2.1353 42 1.39614 41.6938 0.851156 41.1488C0.30617 40.6039 0 39.8647 0 39.094V2.90655C-1.25522e-08 2.13578 0.306153 1.39657 0.851125 0.851496C1.3961 0.306426 2.13525 0.000139104 2.90603 0L39.094 0C39.4756 -6.21782e-09 39.8536 0.0751841 40.2062 0.221259C40.5588 0.367333 40.8792 0.581437 41.149 0.851342C41.4189 1.12125 41.6329 1.44167 41.7789 1.7943C41.925 2.14694 42.0001 2.52489 42 2.90655Z" fill="#005B86"/>
<path d="M42 10.7859V39.094C42 39.8647 41.6938 40.6039 41.1488 41.1488C40.6039 41.6938 39.8647 42 39.094 42H31.6206C32.8539 40.8103 37.3037 37.6431 39.5514 32.6566C40.4431 30.6785 39.9474 28.8358 38.3764 27.2616C37.0183 25.9773 35.4292 24.9618 33.6932 24.269C30.4068 22.9146 20.0353 20.4718 18.3667 19.9262C17.7016 19.7353 17.0818 19.4122 16.5444 18.9763C15.9312 18.4218 15.9312 17.9529 16.5444 17.3984C16.9646 17.036 17.4314 16.7315 17.9324 16.493C20.3338 15.3306 22.8879 14.6539 25.4424 14.0098C30.4661 12.7456 35.5753 11.8119 40.6839 10.9962L42 10.7859Z" fill="#00B25C"/>
<path d="M42 9.59095V10.7859L40.6818 10.9957C35.5732 11.8119 30.464 12.7467 25.4409 14.0098C22.8863 14.6539 20.3322 15.3306 17.9308 16.493C17.4298 16.7315 16.963 17.036 16.5429 17.3984C15.9297 17.9529 15.9297 18.4218 16.5429 18.9763C17.0803 19.4122 17.7 19.7353 18.3652 19.9262C20.0338 20.4718 30.4053 22.9162 33.6916 24.269C35.4276 24.9618 37.0167 25.9773 38.3748 27.2616C39.9485 28.8353 40.441 30.6785 39.5498 32.6566C37.3037 37.6431 32.8539 40.8103 31.6206 42H6.41739C8.35825 41.1492 13.7743 38.763 16.4888 37.4191C18.5122 36.467 20.4326 35.3097 22.2196 33.9654C22.7305 33.5645 23.1851 33.0968 23.5714 32.5748C23.7279 32.3618 23.8393 32.119 23.8987 31.8614C23.9575 31.6054 23.9626 31.34 23.9139 31.0819C23.865 30.8223 23.7632 30.5756 23.6149 30.357C23.4647 30.1351 23.272 29.9452 23.0479 29.7983C21.6641 28.8725 14.2642 26.2387 12.2221 25.272C10.9448 24.6158 9.66753 23.894 8.7396 22.7725C7.34376 21.0871 7.43555 19.2658 8.9982 17.6712C10.3093 16.4143 11.8579 15.4315 13.5534 14.7804C16.108 13.6998 18.8074 13.1018 21.5151 12.5295C26.7559 11.4279 32.0586 10.6825 37.3782 10.083C38.5747 9.9445 42 9.59095 42 9.59095Z" fill="#FEFEFE"/>
</g>
<defs>
<clipPath id="clip0_12_4765">
<rect width="42" height="42" fill="white"/>
</clipPath>
</defs>
</svg>
